# xmcd
#
# Track frame offsets:
#	150
#	14047
#	28857
#	42634
#	56067
#	70669
#	81842
#	97230
#	108493
#	123318
#	137397
#	148262
#
# Disc length: 2181 seconds
#
# Revision: 1
# Processed by: cddbd v1.5.1PL0 Copyright (c) Steve Scherf et al.
# Submitted via: audiograbber 1.81.02
#
DISCID=b408830c
DTITLE=Heather Myles - Dance Across Texas
DYEAR=1900
DGENRE=Female
TTITLE0=Who Did You Call Darlin'
TTITLE1=Indigo Moon
TTITLE2=Sweet Little Dangerous
TTITLE3=Little Chapel (Duet with Dwight Yoakam)
TTITLE4=Sweet Talk and Good Lies
TTITLE5=Cadillac Cowboy
TTITLE6=Love Me A Little Bit Longer
TTITLE7=Rock At The End Of My Rainbow
TTITLE8=Your'e Gonna Love Me One Day
TTITLE9=Just Like Old Times
TTITLE10=Youv'e Taken Me Places I Wish I've Never Been
TTITLE11=Gone Too Long
EXTD=
EXTT0=
EXTT1=
EXTT2=
EXTT3=
EXTT4=
EXTT5=
EXTT6=
EXTT7=
EXTT8=
EXTT9=
EXTT10=
EXTT11=
PLAYORDER=
